<?xml version="1.0" encoding="UTF-8"?>
<svg id="Layer_1" data-name="Layer 1" xmlns="http://www.w3.org/2000/svg" viewBox="0 0 970.65 972.05">
  <defs>
    <style>
      .cls-1 {
        stroke-width: 0px;
      }
    </style>
  </defs>
  <g>
    <path class="cls-1" d="M839.54,918.38c-2.9.56-6.31,1.12-8.79,1.69-2.58.56-4.96,1.12-7.14,1.69,7.29-.58,18.56-1.17,28.71-1.76l-12.78-1.62Z"/>
    <path class="cls-1" d="M749.19,918.29c.02-.07.06-.11.08-.18-.17-.15-.33-.28-.5-.44.14.21.28.39.42.61Z"/>
    <path class="cls-1" d="M770.97,932.91c.92.47,2.32,1.36,3.37,1.91-.8-.54-1.63-1.14-2.48-1.79-.65-.49-1.32-.99-1.99-1.5-1.31-1.04-2.64-2.17-3.95-3.34-2.59-2.38-5.21-4.78-7.49-6.88-4.52-4.03-8.05-6.45-9.15-3.2,4.1,3.59,7.6,6.42,9.25,7.01l-1.09-.14s2.29,1.43,5.44,3.4c1.59.95,3.4,2.01,5.27,3.04l2.82,1.5Z"/>
    <path class="cls-1" d="M734.87,905.16c4.32,3.83,9.44,8.59,13.9,12.51-3.77-5.69-7.49-7.83-13.9-12.51Z"/>
    <path class="cls-1" d="M740.01,904.95c-2.67-1.95,12.99,12.14,14.9,11.55-1.84-2.66-10.4-6.95-9.26-10.09-8.99-9.23,3.12,6.93-5.63-1.45Z"/>
    <path class="cls-1" d="M716.07,878.67c1.35,2.73-1.2,3.19,6.69,10.34l5.39.62c-5.75-4.49-9.1-7.81-12.08-10.96Z"/>
    <path class="cls-1" d="M700.8,864.32l7.69,8.29c-4.33-.52-10.1-9.37-13.08-8.9-.4,1.14,3.38,5.66,4.2,7.39,4.98-1.69,10.55,10.12,11.02,1.87-2.49-2.5-5.46-5.23-9.83-8.64Z"/>
    <path class="cls-1" d="M710.65,872.85s0,.07-.01.11c1.97,1.98,3.64,3.82,5.44,5.71-.6-1.22-1.98-2.89-5.43-5.82Z"/>
    <path class="cls-1" d="M699.61,871.09c-.28.09-.55.2-.83.39,1.05.58,1.15.29.83-.39Z"/>
    <path class="cls-1" d="M672.73,839.36c.44.71.92,1.45,1.51,2.22-.41-.64-.92-1.39-1.51-2.22Z"/>
    <path class="cls-1" d="M677.35,848.51c8.31,9.55,5.14,2.16,8.23,3.59l-8.43-7.73.2,4.13Z"/>
    <path class="cls-1" d="M685.58,852.1l5.9,5.41c-3.12-3.45-4.86-4.93-5.9-5.41Z"/>
    <path class="cls-1" d="M780.51,938.91c.24.17.42.29.66.46-1.18-.94-1.79-1.34-.66-.46Z"/>
    <path class="cls-1" d="M728.29,541.16c.28-3.21-2.47-9.57-2.28-15.22.14,4.81-1.42,13.73,2.28,15.22Z"/>
    <path class="cls-1" d="M740.43,539.14c.31.66.64,1.56.98,2.54-.07-.85-.18-1.7-.36-2.56h-.62Z"/>
    <path class="cls-1" d="M738.86,539.2l1.57-.05c-.65-1.39-1.2-1.83-1.57.05Z"/>
    <path class="cls-1" d="M743.13,560l-1.04-10.43c2.2-.09,3.29-.12,3.85,6.31.68-1.64-1.31-7.22-2.14-10.42l.07,2.41c-.82-1.32-1.67-3.96-2.46-6.19.85,9.29-3.69,17.01,1.72,18.32Z"/>
    <path class="cls-1" d="M746.3,570.51c-.21-1.23-.52-2.84-.88-4.04-.71-2.49-1.67-4.07-2.91-2.42l2.17,5.16.54,1.29c.16.29.28.2.42.31.27.12.53.21.79.28-.01-.15-.04-.36-.13-.57Z"/>
    <path class="cls-1" d="M743.52,574.78c.32.17.72.38,1.09.57.18.09.36.16.53.21.38.23.81.5,1.1.61-1.14-1.29-.83-1.19-1.05-1.51-.12-.22-.25-.37-.37-.47-.26-.2-.55-.2-.88-.12-.68.15-1.45.67-2.48.5-.17-.11-.33-.3-.45-.6.03.27.06.54.08.79.4.35.85.66,1.49.71-.28-1.16.29-1.01.95-.69Z"/>
    <path class="cls-1" d="M714.22,466.68l-.94,1.65c.4.3.75.1.94-1.65Z"/>
    <path class="cls-1" d="M760.14,592.93l.47.65c.82.63,1.66,1.29,2.52,2.06l-2.99-2.71Z"/>
    <path class="cls-1" d="M791.55,615.02l.1.3c.05-.05,0-.16-.1-.3Z"/>
    <path class="cls-1" d="M579.23,767.49c-.3.02-.56.07-.86.08.47.14.71.07.86-.08Z"/>
    <path class="cls-1" d="M729.18,580.76c1.11.34,1.55.21,1.6-.18-.97-.21-1.75-.34-1.6.18Z"/>
    <path class="cls-1" d="M717.82,463.81c-.74-.62-1.47-1.18-2.19-1.66,2.6,6.94,2.12,12.85,1.61,16.4-.48,3.7-.92,5.59,2.29,8.4-.58-1.18-.86-2.63-.96-4.23-.05-.82-.06-1.61-.05-2.55,0-1.03.02-2.09.03-3.17.08-4.33.17-9.42-.73-13.18Z"/>
    <path class="cls-1" d="M711.81,419.78c-1.38.85-2.54,1.29-3.5,1.28.25,1.41-1.57,4.9-2.33,7.08-.78,2.2-.61,3.2,2.8.4.01.19.03.58.06.99,1.19-.92,1.74,3.61,2.83-.02.34,6.39-1.17,8.29-1.29,12.74,1.4,2.57,2.26,8.23,3.04,13.58.79,5.41,1.53,10.53,2.91,13.77-.86-3.43-.55-4.54-.69-7.46-.17-6.67-1.18-13.9-2.08-20.83-.91-7-1.72-13.74-1.75-21.54Z"/>
    <path class="cls-1" d="M585.15,596.41c1.24-.56,3.27-2.72,5.66-5.55-1.18-.07-3.04,1.1-5.66,5.55Z"/>
    <path class="cls-1" d="M677.46,454.29c-1.41,1.21-2.9,2.69-4.27,4.06,1.44-1.37,2.81-2.68,4.27-4.06Z"/>
    <path class="cls-1" d="M625.85,550.69v.02s.35-.45.35-.45c-.15.15-.23.29-.35.43Z"/>
    <polygon class="cls-1" points="656.78 855.04 654.23 853.91 648.09 848.53 641.39 844.24 645.83 850.2 639.08 847.21 649.27 867.04 653.54 860.53 653.92 861.04 655.82 857.05 656.55 855.95 656.41 855.82 656.78 855.04"/>
    <path class="cls-1" d="M630.02,525.15c.4-2.9.48-6.21.29-9.8-.19-3.51-.58-7.75-.98-11.84-.17,4.4-.33,8.8-.49,13.1-.24,4.56-.42,9.07-.47,13.54-.02,1.83.08,3.64.1,5.46,1.51-2.58,2.85-5.4,2.87-10.25-.54-.5-1.07-1.02-1.31-.21Z"/>
    <path class="cls-1" d="M935.52,768.79c.17,1.15,0,2.89-.16,4.64-1.78,3.09-1.72-5.02-2.13-8.3,1.86-3.5,3.52-11.73,4.15-26.38-.73-.7-1.57-1.51-2.46-2.37l-14.38-11.64-7.61-5.57c-.27-.84.81-.74.81-.74-14.14-11.06-27.21-25.29-38.08-32.79-2.17-.2-7.04-2.25.3,4.11-7.32-3.09-13.32-11.79-18.5-17.97l7.04,2.25c-17.39-14.6-34.85-35.76-52.22-47.1l1.36,4.19c-15.48-11.97-27.75-26.95-36.97-32.67,8.18,12.16-8.95-4.88-12.75-6.85,9.15,9.96,26.08,21.32,27.64,23.39l-.18-.54,20.93,15.74-2.41,2.25c5.91-4.39,24.24,25.83,24.73,17.71,5.69,4.58,6.01,8.71,4.11,9.35l16.57,12.08c.83,2.53-4.58,2.05-6.22.26-5.98-5.43-17.64-12.17-21.21-19.84-6.24-3.01,2.21,6.73-9.2-2.45-15.82-19.38-40.26-36.25-51.18-50.28,2.19,3.46,5.19,6.19.3,4.11l-7.17-9.83c-7.8-6.04-14.18-6.58-18.13-12.85-3.24-.27,11.73,13.31,15.54,18.53-.63-.05-1.22-.17-1.79-.3-4.84-3.69-12.59-8.31-9.84-10.86-1.39-.67-2.36-1.03-3.11-1.21-.8-1.03-1.63-2.03-2.54-2.93-2.19-2.14-3.12-2.48-5.83-3.02-1.53.09-1.35.89-.21,2.14.58.64,1.29,1.3,2.24,2.13,1.07.92,2.24,1.91,3.37,2.89.58.49,1.15.98,1.69,1.45.61,1.56,1.14,2.94-1.24,1.91l-6.18-6.39c.46,1.5,1.22,2.86,2.15,4.12-.22-.14-.38-.23-.62-.38.29.23.56.46.84.69,5.02,6.52,14.82,10.18,14.62,15.21l-14.91-13.34c-.12-.19-.3-.44-.34-.56-.21-.11-.38-.17-.53-.21l-9.21-8.25-2.17-16.97c1.03,2.6,2.61,4.17,3.79,6.27-.1,1.07-.05,2.96-.05,4.89,1.35,1.6,2.7,3.3,2.61,4.03.53.12,1.09.25,1.63.33,1.56.27,2.71.07,1.8-1.8-1.21-1.13-2.54-2.37-3.93-3.67-.3-2.52-.75-5.57-1.35-8.57.97,3.66,1.66,7.28,1.77,8.87.34-1.33.53-2.38.5-4.21-.03-1.86-.21-3.87-.45-5.88-.48-4.01-1.24-8.02-1.69-10.82l-.06,10.48c-1.72-11.46-4.97-11.93-7.01-18.97l-.63-4.91c1.6,1.33,5.51,4.83,6.4,13.73,1.3-5.67-1.31-7.22-1.11-12.84l-4.61-7.12,1.24,4.8-2.01.71-1.42-11.09c.57-3.01,3.67,1.55,4.37-2.03-.5-1.92-.88-3.44-1.19-4.66l.1-.65-1.38-11.42,1.91-2.56c-1.65-6.4-3.65-11.97-5.79-17.85-.53-1.47-1.08-2.96-1.63-4.48-.55-1.58-1.11-3.19-1.69-4.85-.46-1.35-.93-2.75-1.42-4.18l-.89-6.95,1.03-1.67c-.58-.49-2.07-9.17-3.93-21.05l-1.44-11.24-24.19,23.86c-.96.38-1.88.74-2.9,1.17-3.31,1.38-7.03,3.23-10.5,5.45-.26.16-.48.36-.73.53.03-.02.05-.04.08-.07-.04.04-.08.06-.12.1-.51.34-.98.71-1.47,1.05-.41.18-.72.17-.89-.17,1.35-3.68,7.04-7.41,10.91-9.42,3.95-2.08,6.47-2.82,5.95-4.92-3.21.82-8.48,5.22-13.28,9.33-4.54,3.85-8.12,6.92-9.97,7.07-1.03,2.28,4.57-1.48.68,3.66-7.53,6.3-7.42,4.34-12.95,7.09l-2.11,5.54c-1.4-.85-3.55.22-6.19,2.39-.6.48-1.42,1.22-2.36,2.1-.89.86-1.83,1.77-2.82,2.73-1.9,1.94-3.96,4.04-6.09,6.21.12,1.22.25,2.49.38,3.77.05-1.2.09-2.37.13-3.58,3.72-2.94,7.49-5.91,11.32-8.93,3.12-2.41,6.29-4.86,9.51-7.35,3.5-2.78,7.03-5.72,10.57-8.78-3.57,5.12-7.71,9.48-12.16,13.47-4.62,4.14-9.85,8.2-15.57,12.96-.11,6.05,0,13.23.62,18.87,3.18,9.16.8-8.9,2.18-10.25l1.94,25.43c-1.56,1.24-5.29,1.96-4.82,5.31l-1.28,5.33c-.43,1.78-.93,2.6-1.4,3.76,1.86.23,2.87,1.98,3.38,4.48-1.06,1.77-3,3.87-4.84,5.6-2.31,2.3-4.71,4.44-6.21,5.7,0-.24.03-.5.05-.75,1.33-1.72,1.05-1.58.04-.71.17-1.75.64-3.69,1.6-5.64.79-1.46,1.12-2.09,1.75-2.72.65-.65,1.56-1.23,2.89-1.85l.56-.92c-.26-1.4-.46-2.73-.61-4.04l-.19-2.04-.21-3.33c-.14-2.63-.11-5.28-.14-7.91-.4.69-.82,1.37-1.23,2.06-.97,1.64-1.89,3.37-2.47,5.66-.29,1.15-.5,2.43-.59,3.91-.14.81-.2,1.29-.1,2.09.5-1.62,1.03-1.16,1.61-.37.58.73,1.23,1.83,1.88.03.53,1.08.6,2.3.41,3.43-.84.69-1.84,1.33-2.84,1.9-1.06.65-1.69.7-3.72,2.62-3.44,3.06-6.96,6.69-9.87,11.56,2.88-4.47,3.46-1.4,2.21,1.15-7.25,6.63-16.45,19.42-22.72,26.87.69.03,1.18.45,1.47.89-6.36,5.9-8,7.84-15.77,13.79-3.97,3.79-7.96,7.95-11.96,12.35l-3,3.35-3.42,3.94c-3.27,3.93-6.58,7.89-9.92,11.89.88,9.34,1.77,18.81,2.65,28.2.64,7.11,1.27,14.16,1.88,20.98,1.06,13.65,1.59,26.43.6,37.07-2.08,9.74-3.88-9.57-4.9-5.53,9.44,33.61,18.41,42.08,27.03,37.29-.42-1.61-.83-3.21-1.23-4.78.37.09,1.18-.08,1.73-.99l1.08,10.6,1.96,1.89s0,.02-.01.03c.01,0,.03,0,.04,0l5.56,5.36c-.55.15-1.16.27-1.78.4-1.57.34-3.33.53-3.53,1.71-.05,1.33.86,3.06,4.48,6.34-5.83-8.24,3.71-6.13,8.58-.6-.04-.12-.02-.27-.03-.4l3.24,3.12c-5.11-2.24-1.08,3.83,4.3,8.35-4.37-4.44-5.68-7.89-4.07-8.14l6.52,6.29c-.68-.46-1.44-.81-2.41-.84-2.51,1.26,5.38,9.99,11.34,17.33-3.28-.05-6.91-5.89-8.89-3.23-15.99-12.71-24.93-22.69-34.44-33.13,17.15,24.27,39.88,49.05,65.59,74.3,1.22.81,2.41,1.54,3.28,1.93l2.07.92-1.03-2c-.2-.4-.54-.92-1.01-1.57-7.69-5.07-9.18-10.19-3.05-6.95,7.5,5.6-1.64,1.77,5.91,6.6l1.48.95-1.04-1.4-2.38-3.19c1.1.97,2.14,1.88,2.95,2.59l7.17,6.29,9.04,5.79-.35.73.28.12-.51.78,3.27,2.87.5-2.21,1.28.57,3.22,2.06.04-.62,6.95,3.08-1.37-24.32c-.08-1.4-.47-1.9-1.44-.42l-2.93,4.47.37-5.21c.03-.48.07-1.05.12-1.69l-.72,1.51-1.62,3.4.82-3.63c.38-1.66.67-3.17.92-4.61.49.47.93.94,1.44,1.41v-.06c-.16-.19-.32-.38-.48-.56.16.15.31.3.47.44v.12c2.11,2.52,3.97,4.9,5.34,6.82-.86-1.4-1.41-2.63-1.44-3.37,1.53,1.38,3.05,2.76,4.6,4.12l.77,2.58,4.84,2.33c22.79,19.76,46.37,38.15,62.1,58.8l12.31,6.36c-.58,1.55-.89,3.99,4.43,7.88-1.58-1.82-4.51-4.63-3.43-4.5l24.07,22.73-2.1-4.43c5.04,6.53,14.16,13.69,21.85,20.9,3.69-5.72,7.2-10.53,10.92-13.82-.46-1.3,3.87-9.47,2.17-9.66,1.62-2.07,3.25-4.14,4.89-6.22.76-.98,1.46-1.97,2.18-2.96.48.04.98.08,1.48.12-.5-.13-.91-.24-1.32-.35.45-.61.92-1.22,1.35-1.84,2.38.08,4.72.1,7.06.1l8.29-.1c4.02-.07,7.94-.13,11.89-.2l-.39.4c4.34,1.34,11.99,1.72,20.87,1.81,8.97.09,18.53-.12,29.59.06l-10.97-.97c-.43-.86,1.62-1.48,2.35-1.98,11.74-.15,3.11,1.33,6.28,2.66.46-1.21,3.54-2.03,8.46-2.57,3.42,1.05,6.76,2.07,10.18,2.33.07-.84.07-1.85-.01-2.98.64-.02,1.24-.05,1.9-.07-.14-5.56-.16-11.72-.09-18.45.05-3.37.11-6.89.17-10.5.09-3.09.18-6.27.28-9.52.53-12.85,1.09-26.7,1.63-39.78.15-3.5.29-6.94.43-10.3,1.88,9.11,4.64,14.07,2.24,23.52-1.29-1.73-.65-.86-1.53.68,2.37,5.87,5.35,16.68,3.53,27.82l-2.16-4.25c-.04,7.27-.09,14.78-.13,22.25-.07,9.43-.13,18.71-.02,27.81-5.68.07-11.15.2-16.43.44,7.48,1.56,1.54,3.28-9.74,3.67-8.62-.37-7.24-.74-4.85-1.22,2.44-.48,5.81-1.06,2.35-1.85-1.28-.5-2.77-.85-4.43-1.07-1.6-.22-2.7-.33-4.27-.34-2.97-.02-6.36.32-9.79.79-6.86.94-13.87,2.37-17.91,2.34,2.51-.86-21.61-2.12-6.9-3.99-6.21-.35-11.79.08-16.93.6-3.97.52-6.3,1.13-9.15,1.12-1.29,1.97-2.72,3.34-5.08,4.52.09.46.17,1.03.24,1.65-.02.4.19.44-.03,1.15-.2.66-.41,1.34-.62,2.05-.95,2.89-2.47,6.5-4.47,10.13l-1.7-3.38c-1.08,3.1-2.29,6.41-3.64,9.93-2.82,4.29-5.41,7.35-7.67,9.6-3.64-4.66-6.65-9.09-9.63-12.87-3.02-3.81-5.98-6.9-10.41-9.71,2.25,1.8,6.52,5.55,6.52,7.91-.77,1.22-7.01-3.46-13.18-7.92-1.57-1.1-3.09-2.18-4.47-3.15-.78-.55-1.27-.82-1.69-1.02-.45-.23-.87-.41-1.26-.56-1.54-.58-2.47-.43-2.29,1.03l2.2,1.28.55.32.8.56,1.62,1.13,6.25,4.31c-5.37-1.5,10.13,12.38,6.51,11.65l19.68,17.14,10.49-17.43c.61.66,1.24,1.31,1.88,1.93l-7.2,8.59c-1.56,5.08-1.64,6.48-.48,5.19,1.15-1.26,3.46-5.09,6.2-9.72,2.75-4.65,5.92-10.07,9.04-14.95,1.56-2.44,3.13-4.76,4.67-6.84.53-.74.37-.41.52-.54.09-.03.17-.06.27-.08.19-.03.39-.03.61.02l-1.65-1.48c1.16-1.03,1.85-1.47,2.25-1.57,1.41.51,1.69.86,2.18,1.27.23.2.5.42.86.68.31.13.09.27.9.42,1.32.14,2.88.31,4.76.5l5.88-2.36c.43-.33-3.88.35-8.26.71-.97.06-1.93.12-2.84.18-.21.03-.41.01-.6-.07-.36-.15-.7-.56-.88-1.37.35-.26.77-.48,1.26-.68.17-.05.14-.09.47-.14l1.28-.13c.86-.08,1.73-.15,2.61-.23,3.53-.24,7.21-.49,10.92-.74,7.42-.47,14.95-1.02,21.54-2.39l-10.23,5.62c4.36-3.25,12.7,2.71,25.68,2.14l-11.15-1.82c2.02-1.07,4.64-1.69,7.65-2.03,1.51-.17,3.11-.27,4.79-.33.84-.02,1.7-.03,2.57-.05,1.48,0,2.99,0,4.51,0,12.17.07,26.26.56,37.95.05-.16-4.02-.42-7.94-.83-11.63-.02,4.05-.03,8.12-.38,10.43-2.25-.23-3.92-.6-4.91-1.21.7-.26,1.75-.45,3.12-.57-.61-7.33.16-18.14.92-25.47,2.65,2.42,3.44,16.33,3.98,30.37-14.72.61-30.09.9-25.65,3.24,10.23.17,19.68-.37,27.75-1.14-.85-10.6-1.99-20.14-2.8-28.26-.4-4.07-.72-7.81-.88-11.29-.16-3.25-.16-7.41.08-8.58l.4,1.05c.13.33.27.65.4,1.37l.81,3.77,1.61,7.95-.52-7.63c-.17-2.46-.35-5.4-.52-6.28l-.12,1.2-.12,1.97c-.65-1.95-.96-2.66-1.06-3.98-.11-1.25-.02-2.66.13-4.16.29-3.01.81-6.4.39-9.66l3.25,4.36.08-12.12-.88,1.54c-1.4-19.55-.85-36.48,1.24-54.08l-1.38,10.38c-.65-.87-.83-6.53-.36-11.35-1.97,1.43-1.41,14.42-3.15,13.44.56-16.94,2.98-19.1,4.62-35.96-1.3-1.74-5.11,10.86-6.33-3.02,2.84,1.09,4.02-10.94,6.8-1.77-2.02-11.87,2.26-9.02-1.05-18.51ZM637,545.24c.44-.19,1.02-.06,1.67.23l.58,7.6c-.96-.76-1.92-1.54-2.86-2.17-.61-3.69-.25-5.2.61-5.66ZM571.76,747.88c6.19-12.06-7.91-34.42-1.15-47.83l4.74,46.45c-1.39-2.3-2.12,5.74-3.59,1.38ZM604.14,791.48l6.27,6.05c-3.23.55-4.23-3.34-6.27-6.05ZM624.72,816.77c.24,0,.47,0,.74,0,0,.23.07.51.14.78-.3-.27-.58-.52-.87-.78ZM635.63,566.35c-.75.49-1.58,1.3-2.51,2.73-.38.59-.69,1.1-.94,1.54l-31.08,38.51s-.09.04-.13.05c-.64.83-1.3,1.69-1.94,2.52l-33.23,41.16,2.18,21.4c-1.1-8.78-2.22-17.72-3.36-26.74,5.76-7.38,11.55-14.81,17.3-22.19,5.72-7.21,11.41-14.37,16.97-21.38,11.22-13.96,22.16-27.18,32.31-38.79l-2.02,1.32c1.76-3.46,6.06-8.12,9.38-10.77.18-.99.43-1.76.72-2.13l.57,7.52-4.24,5.25ZM649.67,493.3c.06,0,.15-.03.22-.03l-.22.22c0-.07,0-.11,0-.18ZM653.07,830.53c-.13.21-.28.43-.41.64l2.32-8.01c-.65,2.5-1.29,4.97-1.91,7.37ZM670.63,826.17c-1.1-1.05-2.18-2.07-3.22-3.06,1.95,1.76,3.35,2.98,4.18,3.62-.32-.18-.64-.35-.97-.56ZM661.61,642.44c-10.03,1.15-19.13-6.09-20.27-16.19-1.22-10.03,6.09-19.13,16.12-20.27,10.1-1.22,19.2,6.09,20.34,16.12,1.15,10.1-6.09,19.2-16.19,20.34ZM716.17,490.01c2.48,9.59,4.74,11.94,5.03,21.6l.52-.7.45,8.66c-.78-2.74.12,2.69-2.47,3.35-2.21-12.81-.84-16.09-3.53-32.91ZM723.44,557.65l-.33-2.57c.18.04.35.15.53.26-.09.81-.17,1.59-.2,2.31ZM788.59,937.36c-.42-.33-.84-.64-1.26-.96-2.32-1.73-4.69-3.54-6.7-7.13.01,0,.02,0,.03,0l8.34,7.89c-.18.04-.33.09-.41.19ZM795.37,944.58c-2.52-3.53-4.44-5.36-6.24-6.8.12-.05.27-.08.32-.18l7.91,7.48c-.13.36-.68.32-1.99-.5ZM914.17,917.71c-1.66-.39-1.96-.63-1.79-.84h.95v-.2c.44-.02.9-.04,1.35-.05-.19.55-.36.93-.51,1.09Z"/>
  </g>
  <g>
    <path class="cls-1" d="M916.88,219.67c-.07-.02-.11-.06-.18-.08-.15.17-.28.33-.43.5.21-.14.39-.28.61-.42Z"/>
    <path class="cls-1" d="M903.75,233.99c3.83-4.32,8.59-9.44,12.51-13.9-5.69,3.77-7.83,7.49-12.51,13.9Z"/>
    <path class="cls-1" d="M923.57,211.43s1.43-2.29,3.4-5.44c.95-1.59,2.01-3.4,3.04-5.27l1.5-2.82c.47-.92,1.36-2.32,1.91-3.37-.54.8-1.14,1.63-1.79,2.48-.49.65-.99,1.32-1.5,1.99-1.04,1.31-2.17,2.64-3.34,3.95-2.38,2.59-4.78,5.21-6.88,7.49-4.04,4.52-6.45,8.05-3.2,9.15,3.59-4.1,6.42-7.6,7.01-9.25l-.14,1.09Z"/>
    <path class="cls-1" d="M904.99,223.22c-9.23,8.99,6.93-3.11-1.45,5.63-1.95,2.67,12.14-12.99,11.55-14.9-2.66,1.84-6.95,10.4-10.09,9.26Z"/>
    <path class="cls-1" d="M871.56,258.23c-2.5,2.49-5.23,5.46-8.64,9.83l8.29-7.69c-.51,4.33-9.37,10.1-8.9,13.08,1.14.4,5.66-3.38,7.39-4.2-1.69-4.98,10.12-10.55,1.87-11.02Z"/>
    <path class="cls-1" d="M887.6,246.1l.62-5.39c-4.49,5.75-7.81,9.1-10.96,12.08,2.73-1.35,3.19,1.2,10.34-6.69Z"/>
    <path class="cls-1" d="M869.69,269.25c.09.28.2.55.39.83.58-1.05.29-1.15-.39-.83Z"/>
    <path class="cls-1" d="M871.45,258.21s.07,0,.11.01c1.98-1.97,3.82-3.64,5.71-5.44-1.22.6-2.89,1.98-5.82,5.43Z"/>
    <path class="cls-1" d="M837.95,296.13c.71-.44,1.46-.93,2.22-1.51-.64.41-1.39.92-2.22,1.51Z"/>
    <path class="cls-1" d="M850.7,283.28l5.41-5.9c-3.45,3.12-4.93,4.86-5.41,5.9Z"/>
    <path class="cls-1" d="M842.97,291.71l4.14-.2c9.55-8.31,2.16-5.14,3.59-8.23l-7.73,8.44Z"/>
    <path class="cls-1" d="M937.5,188.35c.17-.24.3-.42.46-.66-.93,1.18-1.34,1.79-.46.66Z"/>
    <path class="cls-1" d="M524.54,242.84c4.81-.14,13.73,1.42,15.22-2.28-3.21-.28-9.57,2.47-15.22,2.28Z"/>
    <path class="cls-1" d="M537.73,227.81v.62c.68-.31,1.57-.64,2.56-.98-.85.07-1.7.18-2.56.36Z"/>
    <path class="cls-1" d="M537.79,230.01l-.05-1.57c-1.39.65-1.83,1.2.05,1.57Z"/>
    <path class="cls-1" d="M558.6,225.73l-10.43,1.04c-.09-2.2-.12-3.29,6.31-3.85-1.64-.68-7.22,1.31-10.42,2.14l2.41-.07c-1.32.82-3.96,1.67-6.19,2.46,9.29-.85,17.01,3.69,18.32-1.72Z"/>
    <path class="cls-1" d="M562.64,226.34l5.16-2.17,1.29-.54c.29-.16.2-.28.31-.42.12-.27.21-.53.28-.79-.15.01-.36.04-.57.13-1.23.21-2.84.53-4.04.88-2.49.71-4.07,1.67-2.42,2.91Z"/>
    <path class="cls-1" d="M573.36,227.79c.35-.4.66-.85.71-1.49-1.16.28-1.01-.29-.69-.95.17-.32.38-.72.57-1.09.09-.18.16-.36.21-.53.23-.38.5-.81.61-1.1-1.29,1.14-1.19.83-1.51,1.05-.22.12-.37.25-.47.37-.2.26-.2.55-.12.88.15.68.67,1.45.5,2.48-.11.17-.3.33-.6.45.27-.03.54-.05.79-.08Z"/>
    <path class="cls-1" d="M465.27,254.64l1.65.94c.31-.4.1-.75-1.65-.94Z"/>
    <path class="cls-1" d="M591.52,208.72l.65-.47c.63-.82,1.29-1.66,2.06-2.52l-2.71,2.99Z"/>
    <path class="cls-1" d="M613.61,177.31l.3-.1c-.05-.05-.16,0-.3.1Z"/>
    <path class="cls-1" d="M766.08,389.63c.02.3.07.56.08.86.14-.47.07-.71-.08-.86Z"/>
    <path class="cls-1" d="M544.48,243.11c.78-.76,3.82-5.97,14.26-7.01-5.67-1.3-7.22,1.31-12.84,1.11l-7.12,4.61,4.8-1.24.9,2.53Z"/>
    <polygon class="cls-1" points="525.87 240.73 513.84 242.19 529.9 241.35 525.87 240.73"/>
    <path class="cls-1" d="M482.13,246.63c3.7.48,5.59.92,8.4-2.29-1.18.58-2.63.86-4.23.96-.82.05-1.61.06-2.55.05-1.03,0-2.09-.02-3.17-.03-4.33-.08-9.42-.17-13.18.73-.62.74-1.18,1.47-1.66,2.19,6.94-2.6,12.85-2.12,16.4-1.61Z"/>
    <path class="cls-1" d="M431.72,257.89c2.2.78,3.2.61.4-2.8.19-.01.58-.03.99-.06-.92-1.19,3.61-1.74-.02-2.83,6.39-.34,8.29,1.17,12.74,1.29,2.57-1.4,8.23-2.26,13.58-3.04,5.41-.79,10.53-1.53,13.77-2.91-3.43.86-4.54.55-7.46.69-6.67.17-13.9,1.18-20.83,2.08-7,.91-13.74,1.72-21.54,1.75.85,1.38,1.29,2.54,1.28,3.5,1.41-.25,4.9,1.57,7.08,2.33Z"/>
    <path class="cls-1" d="M594.44,373.07c-.07,1.18,1.1,3.04,5.55,5.65-.56-1.24-2.72-3.27-5.55-5.65Z"/>
    <path class="cls-1" d="M461.93,290.68c-1.37-1.44-2.68-2.81-4.06-4.27,1.21,1.41,2.69,2.9,4.06,4.27Z"/>
    <path class="cls-1" d="M553.84,337.68c.15.15.29.23.43.35h.02s-.45-.35-.45-.35Z"/>
    <polygon class="cls-1" points="858.62 307.09 857.5 309.64 852.11 315.79 847.82 322.48 853.78 318.04 850.79 324.8 870.62 314.6 864.11 310.34 864.63 309.95 860.63 308.05 859.53 307.33 859.4 307.47 858.62 307.09"/>
    <path class="cls-1" d="M528.73,333.85c-2.9-.4-6.21-.48-9.8-.29-3.51.19-7.75.58-11.84.98,4.41.17,8.8.33,13.1.49,4.56.24,9.07.42,13.54.47,1.83.02,3.64-.08,5.46-.1-2.58-1.51-5.4-2.85-10.25-2.87-.51.54-1.02,1.07-.21,1.31Z"/>
    <path class="cls-1" d="M953.22,155.96c.66-.61,1.31-1.24,1.93-1.88l8.59,7.2c5.08,1.56,6.48,1.64,5.19.48-1.26-1.15-5.09-3.46-9.72-6.2-4.65-2.75-10.07-5.92-14.95-9.04-2.44-1.56-4.76-3.13-6.84-4.67-.74-.53-.41-.37-.54-.52-.03-.08-.06-.17-.08-.27-.03-.19-.03-.39.02-.61l-1.48,1.65c-1.03-1.16-1.47-1.85-1.57-2.25.51-1.41.86-1.69,1.27-2.18.21-.23.42-.5.68-.86.13-.31.27-.09.42-.9.14-1.32.31-2.88.5-4.76l-2.36-5.88c-.33-.43.35,3.88.71,8.26.06.97.12,1.93.18,2.84.03.22.01.41-.07.6-.15.36-.56.7-1.37.89-.26-.35-.48-.77-.68-1.26-.05-.17-.09-.14-.14-.47l-.13-1.28c-.08-.86-.15-1.73-.23-2.61-.24-3.54-.49-7.21-.74-10.92-.47-7.42-1.02-14.95-2.39-21.54l5.62,10.23c-3.25-4.36,2.71-12.7,2.14-25.67l-1.82,11.15c-1.07-2.02-1.69-4.64-2.03-7.65-.17-1.51-.27-3.11-.33-4.79-.02-.84-.03-1.7-.05-2.57,0-1.48,0-2.99,0-4.51.07-12.17.56-26.26.05-37.95-4.02.16-7.94.42-11.63.83,4.05.02,8.12.03,10.43.38-.23,2.25-.6,3.92-1.21,4.91-.26-.7-.45-1.75-.57-3.12-7.33.61-18.14-.16-25.47-.92,2.42-2.65,16.33-3.44,30.37-3.98.61,14.72.9,30.09,3.24,25.65.17-10.23-.37-19.68-1.14-27.75-10.6.85-20.15,1.99-28.26,2.8-4.07.4-7.81.72-11.29.88-3.25.16-7.41.16-8.58-.08l1.05-.4c.33-.13.65-.27,1.37-.4l3.77-.8,7.95-1.61-7.63.52c-2.46.17-5.4.35-6.28.52l1.2.12,1.97.12c-1.95.65-2.66.96-3.98,1.06-1.25.11-2.66.02-4.16-.13-3.01-.29-6.4-.81-9.66-.39l4.36-3.25-12.12-.08,1.54.89c-19.55,1.4-36.48.85-54.08-1.24l10.38,1.38c-.87.65-6.53.83-11.35.36,1.43,1.97,14.42,1.41,13.44,3.15-16.94-.56-19.1-2.98-35.96-4.62-1.74,1.3,10.86,5.11-3.02,6.33,1.09-2.84-10.94-4.02-1.77-6.8-11.87,2.02-9.02-2.26-18.51,1.05,1.15-.17,2.89,0,4.64.16,3.09,1.77-5.02,1.72-8.3,2.13-3.5-1.86-11.73-3.52-26.38-4.15-.7.73-1.51,1.57-2.37,2.46l-11.64,14.38-5.57,7.61c-.84.27-.74-.81-.74-.81-11.06,14.14-25.29,27.21-32.79,38.08-.2,2.17-2.25,7.04,4.11-.3-3.09,7.32-11.79,13.32-17.97,18.5l2.25-7.04c-14.6,17.39-35.76,34.85-47.1,52.22l4.19-1.36c-11.97,15.48-26.95,27.75-32.67,36.97,12.16-8.18-4.88,8.95-6.85,12.75,9.96-9.15,21.32-26.08,23.39-27.64l-.54.18,15.74-20.93,2.25,2.41c-4.39-5.91,25.83-24.24,17.71-24.73,4.58-5.69,8.71-6.01,9.35-4.11l12.08-16.57c2.53-.83,2.05,4.58.26,6.22-5.43,5.98-12.17,17.63-19.84,21.21-3,6.24,6.73-2.21-2.45,9.2-19.38,15.82-36.25,40.26-50.28,51.18,3.46-2.19,6.19-5.19,4.11-.3l-9.83,7.18c-6.04,7.8-6.58,14.17-12.85,18.13-.27,3.24,13.31-11.73,18.53-15.54-.17,1.93-.75,3.56-1.57,5-1.78,1.92-3.42,2.92-4.6,1.64-1.24,2.59-1.5,3.87-1.27,4.47-.52.39-1.06.78-1.59,1.17-2.18,1.57-4.41,3.12-6.27,5-1.77,1.81-2.3,2.82-2.74,4.62-.27.29-.51.55-.79.85-6.42.76-16.33,2.45-19.83,5.24-2.16.35-4.17.7-5.77.96l4.92.03c-.07.11-.22.21-.27.33,1.03.14,1.91.19,2.8.25-8.57,1.79-9.59,4.62-15.95,6.46l-16.71,2.13c-3.01-.57,1.55-3.67-2.03-4.37-15.96,4.13-5.6.9-4.67,4.53-12.81,2.21-16.09.84-32.91,3.53,9.59-2.48,11.94-4.75,21.6-5.03l-3.31-2.46c-6.4,1.65-11.97,3.65-17.84,5.79-1.47.53-2.96,1.08-4.48,1.63-1.58.55-3.19,1.11-4.85,1.69-1.35.46-2.75.93-4.18,1.42l-6.95.89-1.67-1.03c-.28.33-3.15.94-7.73,1.75.16-.16.29-.32.47-.48-.31.23-.7.42-1.1.59-2.06.36-4.43.75-7.05,1.18-2.91.14-6.06.16-8.01.41.23.23.51.46.77.69l-9.65,1.23,32.95,33.41c3.32,3.92,5.88,7.04,6.01,8.71,1.35.61.6-1.09.82-1.78l7.28,7.38c1.02,2.08,1.02,3.39,2.65,6.67l5.54,2.11c-.85,1.4.22,3.55,2.39,6.19.48.6,1.22,1.42,2.1,2.36.86.89,1.77,1.83,2.73,2.82,1.94,1.9,4.04,3.96,6.21,6.09,1.22-.12,2.49-.25,3.77-.38-1.2-.04-2.37-.09-3.58-.13-2.94-3.72-5.91-7.49-8.93-11.32-1.59-2.06-3.23-4.17-4.85-6.28l16.09,16.31,36.22-2.77c.59.37,1.29.58,2.21.45l5.33,1.28c1.78.43,2.6.93,3.76,1.4.23-1.86,1.98-2.87,4.48-3.38,1.77,1.06,3.87,3,5.59,4.84,2.3,2.31,4.44,4.71,5.7,6.21-.24,0-.5-.03-.75-.05-1.72-1.33-1.58-1.05-.71-.04-1.75-.17-3.69-.64-5.64-1.6-1.46-.79-2.09-1.12-2.72-1.75-.65-.65-1.23-1.56-1.85-2.89l-.92-.56c-1.4.26-2.73.46-4.04.61l-2.04.19-3.33.21c-2.63.14-5.28.12-7.91.14.69.4,1.37.82,2.06,1.23,1.64.97,3.37,1.89,5.66,2.47,1.15.29,2.43.5,3.91.59.81.14,1.29.2,2.09.1-1.62-.5-1.16-1.03-.37-1.61.73-.58,1.83-1.23.03-1.88,1.08-.53,2.3-.6,3.43-.41.69.84,1.33,1.84,1.9,2.84.65,1.06.7,1.69,2.62,3.72,3.06,3.44,6.69,6.96,11.56,9.87-4.48-2.88-1.4-3.46,1.15-2.21,6.63,7.25,19.42,16.45,26.87,22.72.03-.69.45-1.18.89-1.47,5.9,6.36,7.84,8,13.79,15.77,3.79,3.97,7.95,7.96,12.35,11.96l3.35,3,3.94,3.42c3.93,3.28,7.89,6.58,11.89,9.92,9.34-.88,18.81-1.77,28.2-2.65,7.11-.64,14.16-1.27,20.98-1.88,13.65-1.06,26.43-1.59,37.07-.6,9.74,2.08-9.57,3.88-5.53,4.9,30.64-8.61,40.34-16.82,38.2-24.73l.82-.85s.02,0,.03.01c0-.01,0-.03,0-.04l5.36-5.56c.15.55.27,1.16.4,1.78.34,1.57.53,3.33,1.71,3.53,1.33.05,3.06-.86,6.34-4.48-8.24,5.83-6.13-3.71-.6-8.58-.12.04-.27.02-.4.03l3.12-3.24c-2.24,5.11,3.83,1.08,8.36-4.3-4.44,4.37-7.89,5.68-8.14,4.07l6.29-6.52c-.46.68-.81,1.44-.84,2.41,1.55,3.08,14.32-9.48,22-14.95-1.19,2.88-5.2,5.8-2.92,7.51-12.71,15.99-22.69,24.93-33.13,34.44,24.27-17.15,49.05-39.88,74.3-65.59.81-1.22,1.55-2.41,1.93-3.28l.92-2.07-2,1.03c-.4.2-.92.54-1.57,1.01-5.07,7.69-10.19,9.18-6.95,3.05,5.6-7.5,1.77,1.64,6.6-5.91l.95-1.48-1.4,1.04-3.19,2.38c.97-1.11,1.88-2.14,2.59-2.95l6.29-7.17,5.79-9.04.73.35.12-.28.78.51,2.87-3.27-2.21-.5.57-1.28,2.06-3.22-.62-.04,3.08-6.95-24.32,1.37c-1.4.08-1.9.47-.42,1.44l4.47,2.93-5.21-.37c-.48-.03-1.05-.07-1.69-.12l1.52.72,3.4,1.62-3.63-.82c-1.42-.32-2.73-.58-3.99-.81.91-.7,1.77-1.33,2.55-1.89-1.14.7-2.13,1.16-2.87,1.33,1.45-1.56,2.89-3.12,4.32-4.7l1.89-.56,1.58-3.28c21.98-24.72,41.9-51.39,64.53-68.64l6.36-12.31c1.55.58,3.99.89,7.88-4.43-1.82,1.58-4.63,4.51-4.5,3.43l22.73-24.07-4.43,2.1c6.41-4.95,13.43-13.82,20.5-21.42,1.82,1.44,3.34,2.8,4.59,4.06-4.66,3.64-9.09,6.65-12.87,9.63-3.81,3.02-6.9,5.98-9.71,10.41,1.8-2.25,5.55-6.52,7.91-6.52,1.22.77-3.46,7.01-7.92,13.18-1.11,1.57-2.18,3.09-3.15,4.47-.55.78-.82,1.27-1.02,1.69-.23.45-.41.87-.56,1.26-.58,1.54-.43,2.47,1.03,2.29l1.28-2.2.32-.55.56-.8,1.13-1.62,4.31-6.25c-1.5,5.37,12.38-10.13,11.65-6.51l17.14-19.68-17.43-10.49ZM589.98,232.19c-.19.12-.44.3-.56.33-.11.21-.17.38-.21.53l-8.25,9.21-27.29,3.48c.41-1.63,3.82-3.31,7.96-4.68.65-.22,1.32-.42,2-.62,3.06-.12,5.14-.78,6.78-1.67,1.68-.34,3.09-.56,3.93-.61-.76-.19-1.45-.33-2.23-.42,1.05-.72,2.02-1.46,3.14-2.09,1.07.1,2.96.05,4.89.05,1.6-1.35,3.3-2.7,4.03-2.61.12-.53.25-1.09.33-1.63.02-.14.02-.25.03-.37.71-.83,1.44-1.68,2.17-2.53,3.87-4.56,7.5-8.64,6.66-3.63l-8.86,8.57c-.04-.24-.15-.38-.33-.4-.07.33-.12.61-.14.86l-.34.33c.11-.03.22-.09.33-.13-.01.37.04.63.33.54.09-.31.12-.52.15-.73,3.29-1.27,5.93-3.88,8.22-6.7-.11.18-.19.31-.31.5,2.79-3.52,5.48-6.67,8.13-9.62.9-.6,1.82-.9,2.79-.86l-13.34,14.91ZM623.57,334.99c-10.03,1.15-19.13-6.09-20.34-16.19-1.15-10.03,6.09-19.13,16.19-20.27,10.1-1.15,19.2,6.09,20.34,16.12,1.07,10.03-6.09,19.13-16.19,20.34ZM790.07,364.73l6.05-6.27c.55,3.23-3.34,4.23-6.05,6.27ZM830.31,292.28c-.18.32-.34.64-.56.97-1.05,1.1-2.07,2.17-3.06,3.22,1.76-1.95,2.97-3.35,3.62-4.18ZM811.76,310.99l2.25-2.38.89,3.29-3.14-.91ZM815.36,344.72c0-.4-.01-.82,0-1.32.42,0,.94-.14,1.48-.34-.5.56-1.01,1.13-1.49,1.66ZM816.78,312.44l-1.03-.3-1.13-4.17.08-.09.32,1.19s.02-.02.03-.03l.02.07c.25-.29.54-.62.83-.96v-.02c.08-.09.17-.18.25-.28-.09.1-.17.19-.25.29l.64,2.35,1.63-1.74s0,0,0,0l.95,3.49c-.23.17-.47.32-.7.49-.72-.33-1.27-.45-1.63-.31ZM819.2,313.14c-.08-.04-.14-.07-.22-.11.09-.1.17-.2.26-.3l.12.46-.17-.05ZM819.37,313.19c.78-.72,1.54-1.47,2.31-2.2,2.81,1.82,5.5,3.61,8.08,5.22l-10.4-3.01ZM837.07,306.85l9.74,2.29-3.05,3.5-1.4-.55,1.48-1.54-7.23-2.08c-3.14-.9-6.34-1.82-9.51-2.73.32-.32.63-.64.95-.96,2.66.59,5.73,1.29,9.03,2.07ZM876.42,45.39c-4.98-.2-10.04-.41-15.15-.62,5.16-1.01,11.17-1.48,17.3-.48l-2.16,1.1ZM927.27,77.63c-.48-2.44-1.06-5.81-1.85-2.35-.5,1.28-.84,2.77-1.07,4.43-.22,1.6-.33,2.7-.34,4.27-.02,2.97.32,6.36.79,9.79.94,6.86,2.37,13.87,2.34,17.91-.86-2.51-2.12,21.61-3.99,6.9-.35,6.21.08,11.79.6,16.93.47,3.59.99,5.85,1.08,8.35-1.08-.8-2.15-1.62-3.24-2.39.08-2.38.1-4.72.1-7.06l-.1-8.29c-.11-6.2-.21-12.35-.31-18.35-.05-6,0-11.86.33-17.46.16-2.8.39-5.55.71-8.22.18-1.33.36-2.64.54-3.95.23-1.41.46-2.8.68-4.19-1.33,3.01-2.19-.23-2.83-1.18-.15-11.74,1.33-3.11,2.66-6.28-1.98-.75-2.94-8.44-3.27-19.9,1.41,0,2.88.02,4.28,0,.07,5.68.2,11.15.44,16.43,1.56-7.48,3.28-1.54,3.67,9.74-.37,8.63-.74,7.24-1.22,4.85ZM933.52,156.06c3.6,1.07,9.8,5.28,13.43,8.21-.9.81-1.73,1.52-2.5,2.16-.51-.32-1-.63-1.49-.95.25-.28.53-.56.76-.83-5.84-3.44-11.44-5.3-10.21-8.6ZM940.73,164.04c-.13-.09-.27-.17-.4-.26.03,0,.06,0,.09.01l.32.25ZM932.21,149.54c.3.09.62.19.93.28-.12.06-.26.11-.28.25-.23-.18-.46-.36-.68-.54.02,0,.02,0,.04,0ZM939.98,176.55c-1.73,2.32-3.54,4.69-7.13,6.7.01-.12,0-.21.01-.33l2.9-3.06c.08.38.25.6.74.38.05-.49-.09-.73-.31-.84l9.45-9.99-1.57-1.02c.16-.08.32-.17.49-.26.6.1,1.51.38,2.84.92-4.13,3.06-5.75,5.24-7.43,7.49ZM948.16,168.5c-.06.04-.11.08-.16.12-.68-.42-1.33-.82-1.99-1.23,2.13-1.08,3.95-1.78,2.15,1.11Z"/>
  </g>
  <g>
    <path class="cls-1" d="M233.75,66.89c-4.32-3.83-9.44-8.59-13.9-12.51,3.77,5.69,7.49,7.83,13.9,12.51Z"/>
    <path class="cls-1" d="M197.65,39.15c-.93-.46-2.32-1.36-3.37-1.91.8.54,1.63,1.14,2.48,1.79.65.49,1.32.99,1.99,1.5,1.31,1.04,2.64,2.17,3.95,3.34,2.59,2.38,5.21,4.78,7.49,6.88,4.52,4.03,8.05,6.44,9.15,3.2-4.1-3.59-7.6-6.42-9.25-7.01l1.09.14s-2.29-1.43-5.44-3.4c-1.59-.95-3.4-2.01-5.27-3.04l-2.82-1.5Z"/>
    <path class="cls-1" d="M219.42,53.77c-.02.07-.06.11-.08.18.17.15.33.28.5.43-.14-.21-.28-.39-.42-.61Z"/>
    <path class="cls-1" d="M228.6,67.1c2.67,1.95-12.99-12.14-14.9-11.54,1.83,2.66,10.4,6.95,9.26,10.09,8.99,9.23-3.11-6.92,5.63,1.45Z"/>
    <path class="cls-1" d="M257.97,99.2s0-.07.01-.11c-1.97-1.98-3.64-3.82-5.44-5.71.6,1.22,1.98,2.89,5.43,5.82Z"/>
    <path class="cls-1" d="M269,100.96c.28-.09.55-.2.83-.39-1.05-.58-1.15-.29-.83.39Z"/>
    <path class="cls-1" d="M252.54,93.38c-1.35-2.73,1.2-3.19-6.69-10.34l-5.39-.62c5.75,4.49,9.1,7.81,12.08,10.96Z"/>
    <path class="cls-1" d="M267.81,107.73l-7.69-8.29c4.33.52,10.1,9.37,13.08,8.9.4-1.14-3.38-5.66-4.2-7.39-4.98,1.69-10.55-10.12-11.02-1.87,2.49,2.5,5.46,5.23,9.83,8.64Z"/>
    <path class="cls-1" d="M291.27,123.54c-8.31-9.55-5.14-2.16-8.23-3.59l8.43,7.73-.2-4.14Z"/>
    <path class="cls-1" d="M283.03,119.95l-5.9-5.41c3.12,3.45,4.86,4.93,5.9,5.41Z"/>
    <path class="cls-1" d="M188.1,33.14c-.24-.17-.42-.3-.66-.46,1.18.94,1.79,1.34.66.46Z"/>
    <path class="cls-1" d="M240.32,430.9c-.28,3.21,2.47,9.57,2.28,15.22-.14-4.81,1.42-13.73-2.28-15.22Z"/>
    <path class="cls-1" d="M228.19,432.91c-.31-.66-.64-1.56-.98-2.54.07.85.18,1.7.36,2.56h.62Z"/>
    <path class="cls-1" d="M229.76,432.85l-1.57.05c.65,1.39,1.2,1.83,1.57-.05Z"/>
    <path class="cls-1" d="M225.49,412.05l1.04,10.43c-2.2.09-3.29.12-3.85-6.31-.68,1.64,1.31,7.22,2.14,10.42l-.07-2.41c.82,1.32,1.67,3.96,2.46,6.19-.85-9.29,3.69-17.01-1.72-18.32Z"/>
    <path class="cls-1" d="M222.31,401.54c.21,1.23.52,2.84.88,4.04.71,2.49,1.67,4.07,2.91,2.42l-2.17-5.16-.54-1.29c-.16-.29-.28-.2-.42-.31-.27-.12-.53-.21-.79-.28.01.15.04.36.13.57Z"/>
    <path class="cls-1" d="M225.1,397.27c-.32-.17-.72-.37-1.09-.57-.18-.09-.36-.16-.53-.21-.38-.23-.81-.5-1.1-.61,1.14,1.29.83,1.19,1.05,1.51.12.22.25.37.37.47.26.2.55.2.88.12.68-.15,1.45-.67,2.48-.5.17.11.33.3.45.6-.03-.27-.06-.54-.08-.79-.4-.35-.85-.66-1.49-.71.28,1.16-.29,1.01-.95.69Z"/>
    <path class="cls-1" d="M254.39,505.38l.94-1.65c-.4-.3-.75-.1-.94,1.65Z"/>
    <path class="cls-1" d="M208.48,379.13l-.47-.65c-.82-.63-1.66-1.29-2.52-2.06l2.99,2.71Z"/>
    <path class="cls-1" d="M177.07,357.04l-.1-.3c-.05.05,0,.16.1.3Z"/>
    <path class="cls-1" d="M389.38,204.57c.3-.02.56-.07.86-.08-.47-.14-.71-.07-.86.08Z"/>
    <path class="cls-1" d="M236.82,411.91c-1.3,5.67,1.31,7.22,1.11,12.84l4.61,7.12-1.24-4.8,2.53-.9c-.76-.78-5.97-3.82-7.01-14.26Z"/>
    <polygon class="cls-1" points="242.06 440.74 241.45 444.78 242.9 456.81 242.06 440.74"/>
    <path class="cls-1" d="M252.78,547.29c1.38-.85,2.54-1.29,3.5-1.28-.25-1.41,1.57-4.9,2.33-7.08.78-2.2.61-3.2-2.8-.4-.01-.2-.03-.58-.06-1-1.19.92-1.74-3.61-2.83.02-.34-6.39,1.17-8.29,1.29-12.74-1.4-2.57-2.26-8.23-3.04-13.58-.79-5.41-1.53-10.53-2.91-13.77.86,3.43.55,4.54.69,7.46.17,6.67,1.18,13.9,2.08,20.83.91,7,1.72,13.74,1.75,21.54Z"/>
    <path class="cls-1" d="M246.77,503.25c.74.62,1.47,1.18,2.19,1.66-2.6-6.94-2.12-12.85-1.61-16.4.49-3.7.92-5.59-2.29-8.4.58,1.18.86,2.63.96,4.23.05.82.06,1.61.05,2.55,0,1.03-.02,2.09-.03,3.17-.08,4.33-.17,9.42.73,13.18Z"/>
    <path class="cls-1" d="M373.79,376.2c1.18.07,3.04-1.1,5.65-5.55-1.24.56-3.27,2.72-5.65,5.55Z"/>
    <path class="cls-1" d="M287.13,512.78c1.41-1.21,2.9-2.69,4.27-4.06-1.44,1.37-2.81,2.68-4.27,4.06Z"/>
    <path class="cls-1" d="M338.74,416.37v-.02s-.35.45-.35.45c.15-.15.23-.29.35-.43Z"/>
    <polygon class="cls-1" points="307.81 112.02 310.36 113.15 316.5 118.54 323.2 122.83 318.76 116.87 325.51 119.86 315.32 100.03 311.05 106.53 310.67 106.02 308.76 110.02 308.04 111.12 308.18 111.24 307.81 112.02"/>
    <path class="cls-1" d="M334.57,441.92c-.4,2.9-.48,6.21-.29,9.8.19,3.51.58,7.74.98,11.84.17-4.4.33-8.8.49-13.09.24-4.56.42-9.07.47-13.54.02-1.83-.08-3.64-.1-5.46-1.51,2.58-2.85,5.4-2.87,10.24.54.51,1.07,1.02,1.31.21Z"/>
    <path class="cls-1" d="M413.49,296.14c-.64-7.11-1.27-14.16-1.88-20.98-1.06-13.65-1.59-26.43-.6-37.07,2.08-9.74,3.88,9.57,4.9,5.53-8.88-31.6-17.34-40.97-25.48-38l-1.06-1.02s0-.02.01-.03c-.01,0-.03,0-.04,0l-5.56-5.36c.55-.15,1.16-.27,1.78-.4,1.57-.34,3.33-.53,3.53-1.71.05-1.33-.86-3.06-4.48-6.34,5.83,8.24-3.71,6.13-8.58.6.04.12.02.27.03.4l-3.24-3.12c5.11,2.24,1.08-3.83-4.3-8.36,4.37,4.44,5.68,7.89,4.07,8.14l-6.52-6.3c.68.46,1.44.81,2.41.84,3.12-1.56-9.82-14.66-15.17-22.3,3.23.27,6.75,5.82,8.69,3.22,15.99,12.71,24.93,22.69,34.44,33.13-17.15-24.27-39.88-49.05-65.59-74.3-1.22-.81-2.41-1.54-3.28-1.93l-2.07-.92,1.03,2c.2.4.54.92,1.01,1.57,7.69,5.07,9.18,10.19,3.05,6.95-7.5-5.6,1.64-1.77-5.91-6.6l-1.48-.95,1.04,1.4,2.38,3.19c-1.1-.97-2.14-1.88-2.95-2.59l-7.17-6.29-9.04-5.79.35-.73-.28-.12.51-.78-3.27-2.87-.5,2.21-1.28-.57-3.23-2.06-.04.62-6.95-3.08,1.37,24.32c.05.83.22,1.28.55,1.25.35.54.73,1.1,1.19,1.75-.35-.57-.74-1.15-1.18-1.76.22-.03.49-.23.88-.83l2.93-4.47-.37,5.21c-.03.48-.07,1.05-.12,1.69l.72-1.51,1.62-3.4-.82,3.63c-.39,1.7-.68,3.24-.94,4.72-.33-.31-.65-.61-.98-.92-.64-.84-1.24-1.64-1.76-2.37.32.53.59,1.02.81,1.48-1.5-1.39-3.02-2.75-4.53-4.12l-.21-.69-1.19-.58c-25.04-22.38-52.26-42.56-69.77-65.54l-12.31-6.36c.58-1.55.89-3.99-4.43-7.88,1.58,1.82,4.51,4.63,3.43,4.5l-24.07-22.73,2.1,4.43c-5.04-6.53-14.16-13.69-21.85-20.9-1.57,2.43-3.1,4.64-4.63,6.7.17-.44.32-.85.49-1.3,2.82-4.29,5.41-7.35,7.67-9.6,3.64,4.66,6.65,9.09,9.63,12.87,3.02,3.81,5.98,6.9,10.41,9.71-2.25-1.8-6.52-5.55-6.52-7.91.77-1.22,7.01,3.46,13.18,7.92,1.57,1.1,3.09,2.18,4.47,3.15.78.55,1.27.82,1.69,1.01.45.23.87.41,1.26.56,1.54.58,2.47.43,2.29-1.03l-2.2-1.28-.55-.32-.8-.56-1.62-1.13-6.25-4.31c5.37,1.5-10.13-12.38-6.51-11.65L166.2,0l-10.49,17.43c-.61-.66-1.24-1.31-1.88-1.93l7.2-8.59c1.56-5.08,1.64-6.48.48-5.19-1.15,1.26-3.46,5.09-6.2,9.72-2.75,4.65-5.92,10.07-9.04,14.95-1.57,2.44-3.13,4.76-4.67,6.84-.53.74-.37.41-.52.54-.09.03-.17.06-.27.08-.19.03-.39.03-.61-.02l1.65,1.48c-1.16,1.03-1.85,1.47-2.25,1.57-1.41-.51-1.69-.86-2.18-1.27-.23-.2-.5-.42-.86-.68-.31-.13-.09-.27-.9-.42-1.32-.14-2.88-.31-4.76-.5l-5.88,2.36c-.43.33,3.88-.35,8.26-.71.97-.06,1.93-.12,2.84-.18.21-.03.41-.01.6.07.36.15.7.56.89,1.38-.35.26-.77.48-1.26.68-.17.05-.14.09-.47.14l-1.28.13c-.86.08-1.73.15-2.61.23-3.53.24-7.21.49-10.92.74-7.42.47-14.95,1.02-21.54,2.39l10.23-5.62c-4.36,3.25-12.7-2.71-25.68-2.14l11.15,1.82c-2.02,1.07-4.64,1.69-7.65,2.03-1.51.17-3.11.27-4.79.33-.84.02-1.7.03-2.57.05-1.48,0-2.98,0-4.51,0-12.17-.07-26.26-.56-37.95-.05.16,4.02.42,7.94.83,11.63.02-4.05.03-8.12.38-10.43,2.25.23,3.92.6,4.91,1.21-.7.26-1.75.45-3.12.57.61,7.33-.16,18.14-.92,25.47-2.65-2.42-3.44-16.33-3.98-30.37,14.72-.61,30.09-.9,25.65-3.24-10.23-.17-19.68.37-27.75,1.14.85,10.6,1.99,20.15,2.8,28.26.4,4.07.72,7.81.88,11.29.16,3.25.16,7.41-.08,8.58l-.4-1.05c-.13-.33-.27-.65-.4-1.37l-.81-3.77-1.61-7.95.52,7.63c.17,2.46.35,5.4.52,6.28l.12-1.2.12-1.97c.65,1.95.96,2.66,1.06,3.98.11,1.25.02,2.66-.13,4.16-.29,3.01-.81,6.4-.39,9.66l-3.25-4.36-.08,12.12.89-1.54c1.4,19.55.84,36.48-1.24,54.08l1.38-10.38c.65.87.83,6.53.36,11.35,1.97-1.43,1.41-14.42,3.15-13.44-.56,16.94-2.98,19.1-4.62,35.96,1.3,1.74,5.11-10.86,6.33,3.02-2.84-1.09-4.02,10.94-6.8,1.77,2.02,11.87-2.26,9.02,1.05,18.51-.17-1.15,0-2.89.16-4.64,1.77-3.09,1.72,5.02,2.13,8.3-1.86,3.5-3.52,11.73-4.15,26.38.73.7,1.57,1.51,2.46,2.37l14.38,11.64,7.61,5.57c.27.84-.81.74-.81.74,14.14,11.06,27.21,25.29,38.08,32.79,2.17.2,7.04,2.25-.3-4.11,7.32,3.09,13.32,11.79,18.5,17.97l-7.04-2.25c17.39,14.6,34.85,35.76,52.22,47.1l-1.36-4.19c15.48,11.98,27.75,26.95,36.97,32.67-8.18-12.16,8.95,4.88,12.75,6.85-9.15-9.96-26.08-21.32-27.64-23.39l.18.54-20.93-15.74,2.41-2.25c-5.91,4.39-24.24-25.83-24.73-17.71-5.69-4.58-6.01-8.71-4.11-9.35l-16.57-12.08c-.83-2.53,4.58-2.05,6.22-.26,5.98,5.42,17.64,12.17,21.21,19.84,6.24,3-2.21-6.73,9.2,2.45,15.82,19.38,40.26,36.25,51.18,50.28-2.19-3.46-5.19-6.18-.3-4.11l7.17,9.83c7.8,6.04,14.18,6.58,18.13,12.85,3.23.27-11.73-13.31-15.54-18.53,3.23.28,5.63,1.65,7.67,3.53.62,1,.72,1.91-.07,2.64,1.67.8,2.78,1.19,3.54,1.31.38.51.76,1.03,1.13,1.55,1.57,2.18,3.12,4.41,5,6.27,2.19,2.14,3.12,2.48,5.83,3.02.02,0,.02,0,.04,0,.2.18.36.34.56.53.63,5.32,1.91,13.01,3.92,17.49.45,3.05.98,5.94,1.32,8.11l.03-5.72c.4.49.82.85,1.27,1.05,1.77,6.09,4.15,7.58,5.77,13.17l2.13,16.71c-.57,3.01-3.67-1.55-4.37,2.03,4.13,15.96.9,5.6,4.53,4.68,2.21,12.81.84,16.09,3.53,32.91-2.48-9.59-4.74-11.94-5.03-21.6l-2.46,3.31c1.65,6.4,3.65,11.97,5.79,17.84.53,1.47,1.08,2.96,1.63,4.48.55,1.58,1.11,3.19,1.69,4.85.46,1.35.94,2.75,1.42,4.18l.89,6.95-1.03,1.67c.58.49,2.07,9.18,3.93,21.05l1.44,11.24,28.1-27.71c1.66-1.33,3.37-2.77,5.02-4.18,4.54-3.85,8.12-6.92,9.97-7.07.83-1.84-2.58.18-1.91-1.64l5.01-4.94c3.89-2.71,4.79-1.99,9.17-4.17l2.11-5.54c1.4.85,3.55-.22,6.19-2.39.6-.48,1.42-1.22,2.36-2.1.89-.86,1.83-1.77,2.82-2.73,1.9-1.94,3.96-4.04,6.09-6.21-.12-1.23-.25-2.49-.38-3.77-.05,1.21-.09,2.37-.13,3.58-3.72,2.94-7.49,5.91-11.32,8.93-3.12,2.41-6.29,4.86-9.51,7.35-.52.42-1.05.88-1.58,1.3l20.17-19.89-2.69-35.23c.91-.73,1.54-1.7,1.33-3.2l1.28-5.33c.43-1.78.93-2.6,1.4-3.76-1.86-.23-2.87-1.98-3.38-4.48,1.06-1.77,3-3.87,4.84-5.6,2.31-2.3,4.71-4.44,6.21-5.7,0,.24-.03.5-.05.75-1.33,1.72-1.05,1.58-.04.71-.17,1.75-.64,3.69-1.61,5.64-.79,1.46-1.12,2.09-1.75,2.72-.65.65-1.56,1.23-2.89,1.85l-.56.92c.26,1.4.46,2.73.61,4.04l.19,2.04.21,3.33c.14,2.63.11,5.28.14,7.91.4-.69.82-1.37,1.23-2.06.97-1.64,1.89-3.37,2.47-5.66.29-1.15.5-2.43.59-3.91.14-.81.2-1.29.1-2.09-.5,1.62-1.03,1.16-1.61.37-.58-.73-1.23-1.83-1.88-.03-.53-1.08-.6-2.3-.41-3.43.84-.69,1.84-1.33,2.84-1.9,1.06-.65,1.69-.7,3.72-2.62,3.44-3.06,6.96-6.69,9.87-11.56-2.88,4.47-3.46,1.4-2.21-1.15,7.25-6.63,16.45-19.42,22.72-26.87-.69-.03-1.18-.45-1.47-.89,6.36-5.9,8-7.84,15.77-13.79,3.97-3.79,7.96-7.95,11.96-12.35l3-3.35,3.42-3.94c3.27-3.93,6.58-7.89,9.92-11.89-.88-9.34-1.77-18.81-2.65-28.2ZM45.34,112.98c-1.52-5.84-2.54-13.27-1.29-20.91l1.99,3.91c-.23,5.6-.46,11.29-.7,17ZM145.9,44.01c-1.29,1.66-2.51,3.33-3.7,5.02-2.38-.08-4.72-.1-7.06-.1l-8.29.1c-6.2.11-12.35.21-18.35.31-6,.05-11.86,0-17.46-.33-2.8-.16-5.55-.39-8.22-.71-1.33-.18-2.64-.36-3.95-.54-1.41-.23-2.8-.46-4.19-.68,3.01,1.33-.23,2.19-1.18,2.84-11.74.15-3.11-1.33-6.28-2.66-.76,2.02-8.71,2.98-20.53,3.3.14,5.56.16,11.72.09,18.45-.05,3.37-.11,6.89-.17,10.5-.09,3.09-.18,6.27-.28,9.52-.03.65-.05,1.33-.08,1.99.03-5.6.07-11.27.1-16.95.07-9.43.13-18.71.02-27.81,5.68-.07,11.15-.2,16.43-.44-7.48-1.56-1.54-3.28,9.74-3.67,8.63.37,7.24.74,4.85,1.22-2.44.48-5.81,1.06-2.35,1.85,1.28.5,2.77.84,4.43,1.07,1.6.22,2.7.33,4.27.34,2.97.02,6.36-.32,9.79-.79,6.86-.94,13.87-2.37,17.91-2.34-2.51.86,21.61,2.12,6.9,3.98,6.21.35,11.79-.08,16.93-.6,3.97-.52,6.3-1.13,9.15-1.12.61-.93,1.25-1.71,2-2.41-.17.22-.35.44-.52.67ZM150.78,37.79c-.5.64-1.01,1.28-1.51,1.92,0-.05-.01-.08-.02-.12.02-.4-.19-.44.03-1.15.2-.66.41-1.34.62-2.05.65-1.97,1.65-4.31,2.79-6.72-.82,2.76-3.28,7.97-1.92,8.13ZM153.95,27.13c.16-.3.27-.58.43-.88l.15.3c-.19.2-.39.39-.58.58ZM165.6,27.13c-.07-.06-.15-.15-.23-.21-.77,1.31-1.46,2.59-2.1,3.81-1.37,2.08-2.73,4.07-4.09,6.01-.74.53-1.51.72-2.4.39,1.07-3.6,5.28-9.8,8.21-13.43.57.64,1.11,1.25,1.61,1.83-.33.53-.67,1.08-1,1.6ZM168.66,22.18c-.33.55-.65,1.05-.98,1.58-.71-1.55-.87-2.57.98-1.58ZM182.64,37.75l-3.03-2.86c.38-.08.6-.25.38-.74-.49-.05-.73.09-.84.31l-9.99-9.45-.49.75c-.08-.16-.17-.31-.25-.47-.07-.15-.15-.29-.22-.43.17-.52.39-1.13.71-1.9.25.09.62.29,1,.5,2.98,3.98,5.13,5.57,7.34,7.23,2.32,1.73,4.69,3.54,6.7,7.13-.47-.04-.87-.02-1.32-.05ZM232.18,386.14c-.52-.09-.96-.09-1.33-.03-.84-.72-1.68-1.44-2.54-2.17-2.17-1.84-4.19-3.61-5.22-4.89-.1-.5-.32-1.08-.54-1.65.27-.25.93-.32,2.12-.12l8.83,9.13c-.44-.1-.89-.2-1.33-.27ZM241.11,409.84c.42-6.48-1.24-9.31-2.98-11.78-.11-.7-.19-1.32-.22-1.75-.1.37-.18.73-.25,1.09-.45-.64-.9-1.29-1.3-1.99.1-1.07.05-2.96.05-4.89-1.2-1.42-2.4-2.93-2.59-3.76l.2.21c-.05-.16-.13-.31-.19-.47.95.21,1.71.32,1.56-.19-1.06-.33-1.5-.21-1.58.13-1.62-4.55-5.83-7.83-9.66-10.71.98.46,2.35,1.25,4.31,2.51-4.2-3.33-7.87-6.51-11.29-9.65-.12-.41-.17-.83-.16-1.26l14.91,13.34c.12.19.3.44.33.55.21.11.38.17.52.21l9.21,8.25,3.48,27.29c-1.52-.38-3.07-3.38-4.39-7.13ZM311.13,148.36c1.69-2.59,3.34-5.09,4.83-7.48l-2.79,9.62c-.67-.72-1.36-1.43-2.04-2.14ZM312.83,151.57s-.03.06-.05.09c-.02-.02-.05-.04-.07-.06l.12-.03ZM312.2,153.87l-.3,1.03-2.17.59c-.26-.23-.56-.48-.85-.74h-.02c-.09-.08-.18-.16-.27-.25.1.09.19.16.29.25l2.35-.64-1.75-1.63,2.69-.73c.12.16.22.32.34.48-.33.72-.45,1.28-.31,1.64ZM308.51,156.6l3.15-.86-.91,3.14-2.16-2.05.1-.03c-.06-.07-.11-.14-.17-.21ZM307.56,133.58l2.29-9.74,2.79,2.43-.54,1.36-.84-.81-2.08,7.23c-.81,2.83-1.64,5.71-2.46,8.57-.1.23-.23.52-.36.85-.29-.29-.58-.57-.87-.86.59-2.66,1.29-5.73,2.07-9.03ZM307.36,155.17l-.43.12-.06-.05c.08-.13.15-.25.23-.38.09.11.17.21.25.32ZM293.96,140.9c1.09,1.04,2.17,2.06,3.2,3.04-1.95-1.76-3.34-2.96-4.17-3.61.32.18.64.34.97.56ZM292.14,505.01l4.52-4.46c-1.02,1.57-2.69,3.09-4.52,4.46ZM313.12,376.18c-10.03,1.22-19.2-6.09-20.27-16.19-1.22-10.03,6.09-19.13,16.12-20.27,10.03-1.15,19.13,6.09,20.27,16.12,1.22,10.1-6.09,19.2-16.12,20.34ZM343.16,155.28c.01-.78-.41-1.81-.99-2.92,1.16,1.04,2.25,2.02,3.29,2.95-.69-.04-1.38,0-2.3-.02ZM358.21,174.52c3.23-.55,4.23,3.34,6.28,6.06l-6.28-6.06ZM392.67,219.61l-.11-1.12c.09.19.18.4.28.69-.07.14-.1.29-.17.43Z"/>
  </g>
  <g>
    <path class="cls-1" d="M53.77,761.15c.07.02.11.06.18.08.15-.17.28-.33.44-.5-.21.14-.39.28-.61.42Z"/>
    <path class="cls-1" d="M66.89,746.83c-3.83,4.32-8.59,9.44-12.51,13.9,5.69-3.77,7.83-7.49,12.51-13.9Z"/>
    <path class="cls-1" d="M100.96,711.57c-.09-.28-.2-.55-.39-.83-.58,1.05-.29,1.15.39.83Z"/>
    <path class="cls-1" d="M430.9,740.26c3.21.28,9.57-2.47,15.22-2.28-4.81.14-13.73-1.42-15.22,2.28Z"/>
    <path class="cls-1" d="M432.92,753.01v-.62c-.68.31-1.57.64-2.56.98.85-.07,1.7-.18,2.56-.36Z"/>
    <path class="cls-1" d="M432.85,750.82l.05,1.57c1.39-.65,1.83-1.2-.05-1.57Z"/>
    <path class="cls-1" d="M412.05,755.09l10.43-1.04c.09,2.2.12,3.29-6.31,3.85,1.64.68,7.22-1.31,10.42-2.14l-2.41.07c1.32-.82,3.96-1.67,6.19-2.46-9.29.85-17.01-3.69-18.32,1.72Z"/>
    <path class="cls-1" d="M408,754.48l-5.16,2.17-1.29.54c-.29.16-.2.28-.31.42-.12.27-.21.53-.28.79.15-.01.36-.04.57-.13,1.23-.21,2.84-.52,4.04-.88,2.49-.71,4.07-1.68,2.42-2.91Z"/>
    <path class="cls-1" d="M397.29,753.03c-.35.4-.66.85-.71,1.5,1.16-.28,1.01.29.69.95-.17.32-.38.72-.57,1.09-.09.18-.16.36-.21.53-.23.38-.5.8-.61,1.1,1.29-1.14,1.19-.83,1.51-1.05.22-.12.37-.25.47-.37.2-.26.2-.55.12-.88-.15-.68-.67-1.45-.5-2.48.11-.17.3-.33.6-.45-.27.03-.54.06-.79.08Z"/>
    <path class="cls-1" d="M379.13,772.1l-.65.47c-.63.82-1.29,1.66-2.06,2.52l2.71-2.99Z"/>
    <path class="cls-1" d="M357.04,803.51l-.3.1c.05.05.16,0,.3-.1Z"/>
    <path class="cls-1" d="M204.57,591.19c-.02-.3-.07-.56-.08-.86-.14.47-.07.71.08.86Z"/>
    <path class="cls-1" d="M446.94,648.23c-6.52.34-10.05-1.13-8.68-2.56-6.08,2.49,1.5,3.6,8.68,2.56Z"/>
    <path class="cls-1" d="M377.46,598.79c.07-1.18-1.1-3.04-5.55-5.65.56,1.24,2.72,3.27,5.55,5.65Z"/>
    <path class="cls-1" d="M514.03,685.45c-1.21-1.41-2.69-2.9-4.06-4.27,1.37,1.44,2.68,2.81,4.06,4.27Z"/>
    <path class="cls-1" d="M417.62,633.83h-.02s.45.35.45.35c-.15-.15-.29-.23-.43-.35Z"/>
    <polygon class="cls-1" points="113.27 664.77 114.4 662.22 119.79 656.07 124.08 649.38 118.12 653.82 121.11 647.06 101.28 657.26 107.79 661.53 107.27 661.91 111.27 663.81 112.37 664.53 112.49 664.39 113.27 664.77"/>
    <path class="cls-1" d="M443.17,638.01c2.9.4,6.21.48,9.8.29,3.51-.19,7.75-.58,11.84-.98-4.4-.17-8.8-.33-13.1-.49-4.56-.24-9.07-.42-13.54-.47-1.83-.02-3.64.08-5.46.1,2.58,1.51,5.4,2.85,10.25,2.87.51-.54,1.02-1.07.21-1.31Z"/>
    <path class="cls-1" d="M414.93,647.67c-.19.23-.33.47-.53.7.42-.26.54-.49.53-.7Z"/>
    <path class="cls-1" d="M547.26,716.29c-1.41.25-4.9-1.57-7.08-2.33-2.2-.78-3.2-.61-.4,2.8-.19.01-.58.03-.99.06.92,1.19-3.61,1.74.02,2.83-1.14.06-2.11.05-3.01,0l-27.25-27.63c-.42-1.06-.82-2.09-1.3-3.22-1.38-3.31-3.23-7.03-5.45-10.5-.16-.26-.36-.48-.53-.73.02.03.04.05.07.08-.04-.04-.07-.08-.1-.13-.34-.51-.7-.98-1.05-1.47-.18-.41-.16-.72.17-.89,3.68,1.35,7.41,7.04,9.42,10.91,2.08,3.95,2.82,6.47,4.92,5.95-.82-3.21-5.22-8.48-9.33-13.28-3.85-4.54-6.92-8.11-7.07-9.97-2.28-1.03,1.48,4.57-3.66.68-6.3-7.53-4.34-7.42-7.09-12.95l-5.54-2.11c.85-1.4-.22-3.55-2.39-6.19-.48-.6-1.22-1.42-2.11-2.36-.86-.89-1.77-1.83-2.73-2.82-1.94-1.9-4.04-3.96-6.21-6.09-1.22.12-2.49.25-3.77.38,1.2.04,2.37.09,3.58.13,2.94,3.72,5.91,7.49,8.93,11.32,2.41,3.12,4.86,6.29,7.35,9.51,2.78,3.5,5.72,7.03,8.77,10.57-5.12-3.57-9.48-7.71-13.47-12.16-4.14-4.62-8.2-9.85-12.96-15.57-6.05-.11-13.23,0-18.87.62-9.22,3.2,9.15.76,10.29,2.2-1.55,2.55-3.45,2.05-6.12,1.51-2.56-.55-5.33-1.2-7.37.95-.35,1.32,2.26,1.97,6.1,2.34l-27.34,2.09c.19-2,5.17-4.4,9.95-4.37-1.77-.73-2.08-5.97-6.01-5.41l-5.33-1.28c-1.78-.43-2.6-.93-3.76-1.4-.23,1.86-1.98,2.87-4.48,3.38-1.77-1.06-3.87-3-5.59-4.84-2.3-2.31-4.44-4.71-5.7-6.21.24,0,.5.03.75.05,1.72,1.33,1.58,1.05.71.04,1.75.17,3.69.64,5.64,1.6,1.46.79,2.09,1.12,2.72,1.75.65.65,1.23,1.56,1.85,2.89l.92.56c1.4-.26,2.73-.46,4.04-.61l2.04-.19,3.33-.21c2.63-.14,5.28-.12,7.91-.14-.69-.4-1.37-.82-2.06-1.23-1.64-.97-3.37-1.89-5.66-2.47-1.15-.29-2.43-.5-3.91-.59-.81-.14-1.29-.2-2.09-.1,1.62.5,1.16,1.03.37,1.61-.73.58-1.83,1.23-.03,1.88-1.08.53-2.3.6-3.43.41-.69-.84-1.33-1.84-1.9-2.84-.65-1.06-.7-1.69-2.62-3.72-3.06-3.44-6.69-6.96-11.56-9.87,4.48,2.88,1.4,3.46-1.15,2.21-6.63-7.25-19.42-16.45-26.87-22.72-.03.69-.45,1.18-.89,1.47-5.9-6.36-7.84-8-13.79-15.77-3.79-3.97-7.95-7.96-12.35-11.96l-3.35-3-3.94-3.42c-3.93-3.28-7.89-6.58-11.89-9.92-9.34.88-18.81,1.77-28.2,2.65-7.11.64-14.16,1.27-20.98,1.88-13.65,1.06-26.43,1.59-37.07.6-9.74-2.08,9.57-3.88,5.53-4.9-33.61,9.44-42.08,18.41-37.29,27.03,1.61-.42,3.21-.83,4.78-1.23-.17.71.56,3.09,5.8,1.99,10.48-2.21-3.11-2.89,2.28-4.71,12.36,6.35,35.56-8.69,48.83-.67,16.36-2.05,33.82-4.24,51.52-6.47,7.38,5.76,14.81,11.55,22.19,17.3,7.21,5.72,14.37,11.41,21.38,16.97,13.96,11.22,27.18,22.16,38.79,32.31l-1.32-2.02c3.46,1.76,8.12,6.06,10.77,9.38,1.39.26,2.3.64,2.32,1.12.9-1.11,1.77-2.21,2.5-3.3,3.69-.61,5.2-.25,5.66.61.37.87-.48,2.25-1.34,3.66-.53.85-1.07,1.7-1.29,2.46l-9.49.73-5.25-4.24c-.49-.74-1.3-1.58-2.73-2.51-.59-.38-1.1-.69-1.54-.94l-38.51-31.08s-.04-.09-.05-.13c-.83-.64-1.69-1.3-2.53-1.95l-41.15-33.22-112.71,11.49-1.89,1.96s-.02,0-.03-.01c0,.01,0,.03,0,.04l-5.36,5.56c-.15-.55-.27-1.16-.4-1.78-.34-1.57-.53-3.33-1.71-3.53-1.33-.05-3.05.86-6.34,4.48,8.24-5.83,6.13,3.71.6,8.58.12-.04.27-.02.4-.03l-3.12,3.24c2.24-5.11-3.83-1.08-8.36,4.3,4.44-4.37,7.89-5.68,8.14-4.07l-6.29,6.52c.46-.68.81-1.44.84-2.41-1.67-3.33-16.48,11.63-23.77,16.14-.78.92-1.35,1.67-1.85,2.36-.1-.06-.25-.07-.47,0,.86-.45-3.24,4-9.55,10.65-1.12.58-2.15,1-2.93.99-4.73,7.11-9.68,10.9-14.55,15.06l2.24-2.58c15.43-17.73,39.13-43.76,30.12-33.95-2-3.58,5.93-7.94,2.92-10.19,12.71-15.99,22.69-24.93,33.13-34.44-24.27,17.15-49.05,39.88-74.3,65.59-.81,1.22-1.54,2.41-1.93,3.28l-.92,2.07,2-1.03c.4-.2.92-.54,1.57-1.01,5.07-7.69,10.19-9.18,6.95-3.05-5.6,7.5-1.77-1.64-6.6,5.91l-.95,1.48,1.4-1.04,3.19-2.38c-.97,1.1-1.88,2.14-2.59,2.95l-6.29,7.17-5.79,9.04-.73-.35-.12.28-.78-.51-2.87,3.27,2.21.5-.57,1.28-2.06,3.22.62.04-3.08,6.95,24.32-1.37c1.4-.08,1.9-.47.42-1.44l-4.47-2.93,5.21.37c.48.03,1.05.07,1.69.12l-1.51-.72-3.4-1.62,3.63.82c1.7.39,3.24.68,4.72.94-4.83,5.15-9.54,10.45-14.18,15.79-3.45,3.05-4.46,4.45-4.47,5.19-3.58,4.18-7.12,8.37-10.65,12.5-1.52.23-5.39,3.38-6.97,4.13,1.19,3.49-4.23,7.27-4.76,9.38-2.82,3.17-5.65,6.26-8.49,9.26-1.16.88-2.63,2.26-4.66,4.5l-.04.33c-6.03,6.07-12.16,11.68-18.52,16.52l-4.04,7.81c-1.22,1.5-2.37,2.99-3.26,4.25-.54-.09-1.16-.07-1.88.17.34-1.22,0-2.12-1.37-2.58-3.59,4.1-6.42,7.6-7.01,9.25l.14-1.09s-1.43,2.29-3.4,5.44c-.83,1.39-1.74,2.96-2.65,4.58l-9.01,9.55,4.43-2.1c-3.72,2.87-7.65,7.08-11.67,11.58.8-2.24,4.4-7.1,7.91-11.96,1.1-1.57,2.18-3.09,3.15-4.47.55-.78.82-1.27,1.02-1.69.23-.45.41-.88.56-1.26.58-1.54.43-2.47-1.03-2.29l-1.28,2.2-.32.55-.56.8-1.13,1.62-4.31,6.25c1.5-5.37-12.38,10.13-11.65,6.51l-17.14,19.68,17.43,10.49c-.66.61-1.31,1.24-1.93,1.88l-8.59-7.2c-5.08-1.56-6.48-1.64-5.19-.48,1.26,1.15,5.09,3.46,9.72,6.2,4.65,2.75,10.07,5.92,14.95,9.04,2.44,1.57,4.76,3.13,6.84,4.67.74.53.41.37.54.52.03.09.06.17.08.27.03.19.03.39-.02.61l1.48-1.65c1.03,1.16,1.47,1.85,1.57,2.25-.51,1.41-.86,1.69-1.27,2.18-.21.23-.42.5-.68.86-.13.31-.27.09-.42.9-.14,1.32-.31,2.88-.5,4.76l2.36,5.88c.33.43-.35-3.88-.71-8.26-.06-.97-.12-1.93-.18-2.84-.03-.22-.01-.41.07-.6.15-.36.56-.7,1.37-.88.26.35.48.77.68,1.26.05.17.09.14.14.47l.13,1.28c.08.86.15,1.73.23,2.61.24,3.53.49,7.21.74,10.92.47,7.42,1.02,14.95,2.39,21.54l-5.62-10.23c3.25,4.36-2.71,12.7-2.14,25.68l1.82-11.15c1.07,2.02,1.69,4.64,2.03,7.65.17,1.51.27,3.11.33,4.79.02.84.03,1.7.05,2.57,0,1.48,0,2.98,0,4.51-.07,12.17-.56,26.26-.05,37.95,4.02-.16,7.94-.42,11.63-.83-4.05-.02-8.12-.03-10.43-.38.23-2.25.6-3.92,1.21-4.91.26.7.45,1.75.57,3.12,7.33-.61,18.14.16,25.47.92-2.42,2.65-16.33,3.44-30.37,3.98-.61-14.72-.9-30.09-3.24-25.65-.17,10.23.37,19.68,1.14,27.75,10.6-.85,20.15-1.99,28.26-2.8,4.07-.4,7.81-.72,11.29-.88,3.25-.16,7.41-.16,8.58.08l-1.05.4c-.33.13-.65.27-1.37.4l-3.77.8-7.95,1.61,7.63-.52c2.46-.17,5.4-.35,6.28-.52l-1.2-.12-1.97-.12c1.95-.65,2.66-.96,3.98-1.06,1.25-.11,2.66-.02,4.16.13,3.01.29,6.4.81,9.66.39l-4.36,3.25,12.12.08-1.54-.88c19.55-1.4,36.48-.85,54.08,1.24l-10.38-1.38c.87-.65,6.53-.83,11.35-.36-1.43-1.97-14.42-1.41-13.44-3.15,16.94.56,19.1,2.98,35.96,4.62,1.74-1.3-10.86-5.11,3.02-6.33-1.09,2.84,10.94,4.02,1.77,6.8,11.87-2.02,9.02,2.26,18.51-1.05-1.15.17-2.89,0-4.64-.16-3.09-1.77,5.02-1.72,8.3-2.13,3.5,1.86,11.73,3.52,26.38,4.15.7-.73,1.51-1.57,2.37-2.46l11.64-14.38,5.57-7.61c.84-.27.74.81.74.81,11.06-14.14,25.29-27.21,32.79-38.08.2-2.17,2.25-7.04-4.11.3,3.09-7.32,11.79-13.32,17.97-18.5l-2.25,7.04c14.6-17.39,35.76-34.85,47.1-52.22l-4.19,1.36c11.98-15.48,26.95-27.75,32.67-36.97-12.16,8.18,4.88-8.95,6.85-12.75-9.96,9.15-21.32,26.08-23.39,27.64l.54-.18-15.74,20.93-2.25-2.41c4.39,5.91-25.83,24.24-17.71,24.73-4.58,5.69-8.71,6.01-9.35,4.11l-12.08,16.57c-2.53.83-2.05-4.58-.26-6.22,5.43-5.98,12.17-17.63,19.84-21.21,3-6.24-6.73,2.21,2.45-9.2,19.38-15.82,36.25-40.26,50.28-51.18-3.46,2.19-6.18,5.19-4.11.3l9.83-7.18c6.04-7.8,6.58-14.18,12.85-18.13.27-3.23-13.31,11.73-18.53,15.54.51-5.94,4.67-9.14,9.04-12.28,2.18-1.57,4.41-3.12,6.27-5,2.14-2.19,2.48-3.12,3.02-5.83-.09-1.53-.89-1.35-2.14-.21-.64.58-1.3,1.29-2.13,2.24-.92,1.07-1.91,2.24-2.89,3.37-3.87,4.56-7.5,8.64-6.66,3.63l2.11-2.04c.29.08.57.23.82.51.43-.89.72-1.59.94-2.21l5.81-5.62c-2.08.63-3.88,1.83-5.52,3.28-.25-.49-.89-.45-1.65-.21l.87-.98c.19-.12.44-.3.56-.34.11-.21.17-.38.21-.53l5.89-6.58c-.04,1.1.36,1.74,1.88.99,1.13-1.21,2.37-2.54,3.67-3.93,1.9-.23,4.1-.53,6.35-.92l17.75-2.27s0,.03,0,.04c-1.15.27-2.4.5-3.81.64,1.23.28,2.24.36,3.17.34-1.24,1.29-4.03,2.58-7.31,3.67-4.64,1.55-10.55,2.76-12.71,2.91,1.33.34,2.38.53,4.21.5,1.86-.03,3.87-.21,5.88-.45,4.01-.48,8.02-1.24,10.82-1.69l-10.48-.06c10.03-1.5,11.66-4.17,16.62-6.19.79-.1,1.63-.18,2.64-.14l1.39-.9,15.04-1.92c3.01.57-1.55,3.67,2.03,4.37,15.96-4.13,5.6-.9,4.68-4.53,12.81-2.21,16.09-.84,32.91-3.53-9.59,2.48-11.94,4.74-21.6,5.03l3.31,2.46c6.4-1.65,11.97-3.65,17.84-5.79,1.47-.53,2.96-1.08,4.48-1.63,1.57-.55,3.18-1.11,4.83-1.68.15,0,.28,0,.43,0,4.16.07,8.98.14,12.68-.64.27.12.67.22,1.36.3l-.81-.46c.29-.35.52-.69.78-1.03,1.66-.4,4.49-.93,8.16-1.56,4.47-.42,9.03-1.02,13.48-1.6,7-.91,13.74-1.72,21.54-1.75-.85-1.38-1.29-2.54-1.28-3.5ZM158.88,669.83l-.06.07-.03-.09.09.03ZM157.67,669.81l.04.16c.27.05.55.12.86.19l-.63.67-.23-.86c-.83-.17-1.41-.26-1.76-.26l-.12-.42c.61.18,1.23.35,1.83.53ZM157.03,671.8l-.39.42-.16-.57.55.16ZM155.38,634.47c-.15.92-.05,1.75-.09,2.94-.8-.01-1.86.43-3.01,1.03,1.23-1.51,2.28-2.86,3.1-3.97ZM144.81,666.12c-.21.21-.41.42-.62.63-.76-.5-1.52-.99-2.27-1.46.97.28,1.93.55,2.89.83ZM142.15,678.62c1.05-1.1,2.07-2.17,3.05-3.22-1.52,1.68-2.66,2.98-3.36,3.85h-.06c.13-.21.23-.42.37-.63ZM115.8,711.07l2.69.62c.31-1.52,14.86-17.58,31.39-35.88l.82.23-.56-.52s.07-.07.1-.11c.98.05,2.01.14,3.1.29l-34.17,36.13-.68-.15c-.07.36-.01.59.22.64l-11.19,11.84c2.42-4.06,5.05-8.34,8.29-13.09ZM104.11,727.05c-.72.99-1.36,1.9-1.94,2.76l-20.04,21.19c-.44.01-.86-.09-1.25-.37,8.51-9.82,11.92-10.85,23.22-23.58ZM70.8,759.9c5.52-6.49,6.3-5.58,6.85-4.14l-14.05,14.86-1.01-.61c1.31-2.58,3.42-5.58,8.21-10.1ZM62.57,770.03c-.03.29,0,.88-.05,1.71l-1.29,1.37c.39-1,.8-2.01,1.34-3.08ZM23.74,803.36c4.72-3.37,6.39-5.66,8.18-8.05,1.73-2.32,3.54-4.69,7.13-6.7-.13,1.4-.17,2.71-.13,3.93,4.1-4.6,15.01-14.09,18.87-19.39.76.56.71,1.81.15,3.46l-2.75,2.91-1.41,1.5c-5.72,3.56-7.67,6.48-8.66,9.15l-10.22,10.8c-.08-.38-.25-.6-.74-.38-.05.49.09.73.31.84l-.58.61c-2.35,1.62-4.25,3.47-5.7,5.18.18.1.35.2.52.3l-1.62,1.72c-.76-.56-1.49-1.12-2.12-1.63,2.63-2.36,4.88-4.15,5.74-4.57.69-1.5-1.74-.15-4.16,1.12-2.38,1.23-4.76,2.39-2.79-.78ZM50.28,830.38c0,.1,0,.19,0,.29-.6-.53-1.25-1.09-2.07-1.81.69.5,1.37,1.03,2.07,1.52ZM120.58,934.53c1.73-1.29.86-.65-.68-1.53-5.87,2.37-16.68,5.35-27.82,3.53l4.25-2.16c-7.27-.04-14.78-.08-22.25-.13-9.43-.07-18.71-.13-27.81-.02-.07-5.68-.2-11.15-.44-16.43-1.56,7.48-3.28,1.54-3.67-9.74.37-8.63.74-7.24,1.22-4.85.48,2.44,1.06,5.81,1.85,2.35.5-1.28.84-2.77,1.07-4.43.22-1.6.33-2.7.34-4.27.02-2.97-.32-6.36-.79-9.79-.94-6.86-2.37-13.87-2.34-17.91.86,2.51,2.12-21.61,3.99-6.9.35-6.21-.08-11.79-.6-16.93-.52-3.97-1.13-6.3-1.12-9.15-1.97-1.29-3.34-2.72-4.52-5.08-.46.09-1.03.17-1.65.24-.4-.02-.44.19-1.15-.03-.66-.2-1.34-.41-2.05-.62-2.9-.95-6.5-2.47-10.13-4.47l3.38-1.7c-3.1-1.08-6.41-2.29-9.93-3.64-4.29-2.82-7.35-5.41-9.6-7.67,1.97-1.54,3.87-2.93,5.73-4.29,5.59,3.63,10.31,7.08,13.54,10.73.99-.35,5.99,2.09,8.38,2.49.48.34.96.67,1.43,1.01,1.28.93,2.55,1.85,3.82,2.77l3.07,2.33c1.38,1.08,2.79,2.17,4.19,3.26-.05,2-.09,3.98-.08,5.96l.1,8.29c.11,6.2.21,12.35.31,18.35.05,6,0,11.86-.33,17.46-.16,2.8-.39,5.55-.71,8.22-.18,1.33-.36,2.64-.54,3.95-.23,1.41-.46,2.8-.68,4.19,1.33-3.01,2.19.23,2.83,1.18.15,11.74-1.33,3.11-2.66,6.28,2.02.76,2.98,8.71,3.3,20.53.31,0,.66,0,.97-.01-.11.7-.24,1.4-.29,2.1,1.58.14,3.66.04,6.32-.42-2.76-.64-4.11-1.09-4.47-1.43.03-.11.05-.18.07-.27,3.64-.07,7.53-.09,11.63-.07-.45,1.01-.47,1.91,2.18,2.27,4.39-.74,1.86-1.25-.05-1.73-.75-.18-1.41-.36-1.67-.54,1.26,0,2.44,0,3.75.01.79.01,1.65.03,2.45.04,3.12.95,5.35.7,7.05.11.34,0,.66.01,1,.02,3.09.09,6.27.18,9.52.28.27.01.55.02.81.03l-5.51,1.88c4.76-.6,10.09-1.08,15.7-1.46,9.55.39,19.36.79,28.78,1.18,4.52.19,8.93.38,13.19.54l-.32.58c.95-.19,1.96-.35,2.99-.48,4.59.17,8.96.31,13.04.4,1.61.45,2.8,1.08,3.18,1.96-23.36-.82-27.36,7.25-41.56,3.65ZM174.52,622.37c-.55-3.23,3.34-4.23,6.05-6.27l-6.05,6.27ZM355.38,684.41c-10.1,1.15-19.2-6.16-20.34-16.19-1.07-10.1,6.09-19.13,16.19-20.34,10.03-1.15,19.13,6.09,20.27,16.19,1.22,10.03-6.09,19.13-16.12,20.34ZM368.03,763.55c-.23.03-.47,0-.7,0l3.07-3.43-2.37,3.43ZM370.97,762.01c2.03-2.82,4.2-5.88,6.08-7.34-2.19,2.82-4.11,5.65-6.08,7.34ZM474.64,657.65c.14,0,.23,0,.38,0,0,.13.05.3.07.44l-.44-.45ZM493.66,725.59c.48-.16.95-.32,1.44-.49l6.95-.89.72.45c-3.46.87-6.55,1.04-9.12.93Z"/>
  </g>
</svg>